<?xml version="1.0" encoding="UTF-8" standalone="no"?>
<!DOCTYPE svg PUBLIC "-//W3C//DTD SVG 1.1//EN"
 "http://www.w3.org/Graphics/SVG/1.1/DTD/svg11.dtd">
<!-- Generated by graphviz version 5.0.0 (20220707.1540)
 -->
<!-- Title: StorageDiagram Pages: 1 -->
<svg width="526pt" height="83pt"
 viewBox="0.00 0.00 525.67 83.40" xmlns="http://www.w3.org/2000/svg" xmlns:xlink="http://www.w3.org/1999/xlink">
<g id="graph0" class="graph" transform="scale(1 1) rotate(0) translate(4 79.4)">
<title>StorageDiagram</title>
<polygon fill="white" stroke="transparent" points="-4,4 -4,-79.4 521.67,-79.4 521.67,4 -4,4"/>
<!-- 1 -->
<g id="node1" class="node">
<title>1</title>
<polygon fill="#f2f2f2" stroke="black" points="0,-0.5 0,-74.9 517.67,-74.9 517.67,-0.5 0,-0.5"/>
<text text-anchor="middle" x="258.84" y="-58.3" font-family="Courier New" font-size="14.00">StorageExample &lt;&lt;Contract&gt;&gt;</text>
<polyline fill="none" stroke="black" points="0,-50.1 517.67,-50.1 "/>
<text text-anchor="middle" x="24.8" y="-33.5" font-family="Courier New" font-size="14.00">slot</text>
<polyline fill="none" stroke="black" points="0,-25.3 49.61,-25.3 "/>
<text text-anchor="middle" x="24.8" y="-8.7" font-family="Courier New" font-size="14.00">0</text>
<polyline fill="none" stroke="black" points="49.61,-0.5 49.61,-50.1 "/>
<text text-anchor="middle" x="283.64" y="-33.5" font-family="Courier New" font-size="14.00">type: &lt;inherited contract&gt;.variable (bytes)</text>
<polyline fill="none" stroke="black" points="49.61,-25.3 517.67,-25.3 "/>
<text text-anchor="middle" x="124.82" y="-8.7" font-family="Courier New" font-size="14.00">unallocated (20)</text>
<polyline fill="none" stroke="black" points="200.03,-0.5 200.03,-25.3 "/>
<text text-anchor="middle" x="279.44" y="-8.7" font-family="Courier New" font-size="14.00">uint64: dataB (8)</text>
<polyline fill="none" stroke="black" points="358.85,-0.5 358.85,-25.3 "/>
<text text-anchor="middle" x="438.26" y="-8.7" font-family="Courier New" font-size="14.00">uint32: dataA (4)</text>
</g>
</g>
</svg>
